<?xml version="1.0" standalone="no"?>
<!DOCTYPE svg PUBLIC "-//W3C//DTD SVG 20010904//EN"
 "http://www.w3.org/TR/2001/REC-SVG-20010904/DTD/svg10.dtd">
<svg version="1.0" xmlns="http://www.w3.org/2000/svg"
 width="1958.000000pt" height="2311.000000pt" viewBox="0 0 1958.000000 2311.000000"
 preserveAspectRatio="xMidYMid meet">

<g transform="translate(0.000000,2311.000000) scale(0.100000,-0.100000)"
fill="#fff" stroke="none">
<path d="M3226 23079 c-3 -17 -6 -2274 -6 -5015 l0 -4984 -1610 0 -1610 0 0
-1545 0 -1545 1610 0 1610 0 0 -4990 0 -4990 2093 0 c4821 -1 4468 -2 4639 21
3429 458 6445 2582 8175 5757 1138 2088 1622 4495 1397 6942 -75 816 -246
1668 -499 2480 -347 1114 -895 2238 -1558 3195 -737 1063 -1633 1984 -2657
2730 -977 712 -2089 1264 -3230 1605 -488 145 -922 242 -1495 332 l-210 33
-3321 3 -3321 2 -7 -31z m4404 -4879 c208 -15 389 -36 600 -71 2673 -438 4806
-2633 5274 -5424 102 -610 123 -1275 60 -1885 -188 -1825 -1083 -3478 -2488
-4599 -1040 -829 -2331 -1308 -3633 -1348 l-213 -6 0 2561 0 2562 1795 0 1795
0 0 1545 0 1545 -1795 0 -1795 0 0 2565 0 2565 128 0 c70 0 192 -5 272 -10z"/>
</g>
</svg>
